<svg width="256" height="256" viewBox="0 0 256 256" fill="none" xmlns="http://www.w3.org/2000/svg">
<style>
		path {
			stroke: black;
		}
		@media ( prefers-color-scheme: dark ) {
			path {
				stroke: white;
			}
		}
	</style>
<path d="M3850 4084 c-70 -15 -226 -88 -275 -128 l-30 -25 225 -225 c124 -124
229 -226 235 -226 12 0 455 441 455 453 0 13 -133 94 -200 120 -123 48 -276
60 -410 31z" stroke-width="12" stroke-linecap="round" />
<path d="M3444 3818 c-102 -139 -144 -263 -144 -429 0 -285 141 -511 395 -634
116 -56 177 -70 305 -70 128 0 189 14 305 70 251 122 395 351 395 630 0 118
-23 221 -68 311 -31 62 -117 184 -129 184 -4 0 -29 -21 -55 -47 l-47 -46 37
-42 c54 -62 99 -159 118 -259 15 -76 16 -100 6 -171 -21 -142 -78 -252 -181
-347 -288 -267 -766 -155 -909 212 -64 165 -48 349 43 500 18 30 45 66 59 79
l26 25 -47 48 c-26 26 -51 48 -55 48 -4 0 -29 -28 -54 -62" stroke-width="12" stroke-linecap="round" />
<path d="M3596 3691 c-118 -160 -136 -354 -49 -531 125 -256 432 -353 693
-220 147 75 248 228 266 406 12 112 -40 274 -116 364 l-29 35 -47 -47 -47 -47
36 -53 c53 -78 70 -143 65 -237 -3 -59 -11 -93 -32 -135 -73 -149 -245 -239
-398 -207 -177 36 -295 167 -306 337 -6 95 11 162 60 235 l41 61 -44 44 c-24
24 -46 44 -50 44 -4 0 -23 -22 -43 -49z" stroke-width="12" stroke-linecap="round" />
<path d="M3757 3568 c-43 -56 -59 -107 -59 -184 0 -118 60 -216 166 -272 44
-23 63 -27 136 -27 73 0 92 4 136 27 106 56 166 154 166 272 0 77 -16 128 -59
184 l-25 34 -48 -47 -47 -46 24 -46 c29 -58 29 -98 0 -154 -63 -118 -231 -118
-294 0 -29 56 -29 96 0 154 l24 46 -47 46 -48 47 -25 -34z" stroke-width="12" stroke-linecap="round" />
</svg>


